{
  "accessors": [
    {
      "bufferView": 2,
      "componentType": 5126,
      "count": 65532,
      "max": [
        19.448863983154297,
        1.670762300491333,
        10.696494102478027
      ],
      "min": [
        -19.4491024017334,
        -6.454413414001465,
        -6.1985859870910645
      ],
      "type": "VEC3"
    },
    {
      "bufferView": 2,
      "byteOffset": 786384,
      "componentType": 5126,
      "count": 65532,
      "max": [
        1.0,
        1.0,
        1.0
      ],
      "min": [
        -1.0,
        -1.0,
        -1.0
      ],
      "type": "VEC3"
    },
    {
      "bufferView": 1,
      "componentType": 5126,
      "count": 65532,
      "max": [
        1.0002912282943726,
        1.000000238418579
      ],
      "min": [
        -0.005204458255320787,
        -0.0007114415057003498
      ],
      "type": "VEC2"
    },
    {
      "bufferView": 0,
      "componentType": 5125,
      "count": 312003,
      "type": "SCALAR"
    },
    {
      "bufferView": 2,
      "byteOffset": 1572768,
      "componentType": 5126,
      "count": 60986,
      "max": [
        15.864232063293457,
        -2.8520090579986572,
        6.274333953857422
      ],
      "min": [
        -10.500572204589844,
        -4.3484721183776855,
        -1.6550147533416748
      ],
      "type": "VEC3"
    },
    {
      "bufferView": 2,
      "byteOffset": 2304600,
      "componentType": 5126,
      "count": 60986,
      "max": [
        0.9999987483024597,
        0.8432849645614624,
        0.9999998807907104
      ],
      "min": [
        -0.9999999403953552,
        -1.0,
        -0.9999998807907104
      ],
      "type": "VEC3"
    },
    {
      "bufferView": 1,
      "byteOffset": 524256,
      "componentType": 5126,
      "count": 60986,
      "max": [
        1.000000238418579,
        1.0000001192092896
      ],
      "min": [
        0.0,
        0.0
      ],
      "type": "VEC2"
    },
    {
      "bufferView": 0,
      "byteOffset": 1248012,
      "componentType": 5125,
      "count": 95592,
      "type": "SCALAR"
    }
  ],
  "asset": {
    "extras": {
      "author": "MANGAllER (https://sketchfab.com/MANGAllER)",
      "license": "CC-BY-4.0 (http://creativecommons.org/licenses/by/4.0/)",
      "source": "https://sketchfab.com/3d-models/gamepad-d0e4258c8a2146f5baa6d701833c0b87",
      "title": "Gamepad"
    },
    "generator": "Sketchfab-12.65.0",
    "version": "2.0"
  },
  "bufferViews": [
    {
      "buffer": 0,
      "byteLength": 1630380,
      "name": "floatBufferViews",
      "target": 34963
    },
    {
      "buffer": 0,
      "byteLength": 1012144,
      "byteOffset": 1630380,
      "byteStride": 8,
      "name": "floatBufferViews",
      "target": 34962
    },
    {
      "buffer": 0,
      "byteLength": 3036432,
      "byteOffset": 2642524,
      "byteStride": 12,
      "name": "floatBufferViews",
      "target": 34962
    }
  ],
  "buffers": [
    {
      "byteLength": 5678956,
      "uri": "scene.bin"
    }
  ],
  "materials": [
    {
      "doubleSided": true,
      "name": "GREEN",
      "pbrMetallicRoughness": {
        "baseColorFactor": [
          0.0761854,
          0.799103,
          0.327778,
          1.0
        ],
        "roughnessFactor": 0.3
      }
    }
  ],
  "meshes": [
    {
      "name": "Object_0",
      "primitives": [
        {
          "attributes": {
            "NORMAL": 1,
            "POSITION": 0,
            "TEXCOORD_0": 2
          },
          "indices": 3,
          "material": 0,
          "mode": 4
        }
      ]
    },
    {
      "name": "Object_1",
      "primitives": [
        {
          "attributes": {
            "NORMAL": 5,
            "POSITION": 4,
            "TEXCOORD_0": 6
          },
          "indices": 7,
          "material": 0,
          "mode": 4
        }
      ]
    }
  ],
  "nodes": [
    {
      "children": [
        1
      ],
      "matrix": [
        1.0,
        0.0,
        0.0,
        0.0,
        0.0,
        3.828568672208042e-16,
        -1.0,
        0.0,
        0.0,
        1.0,
        3.828568672208042e-16,
        0.0,
        4.034892754134489e-06,
        -1.8950966307329413e-07,
        -4.292254743631929e-06,
        1.0
      ],
      "name": "Sketchfab_model"
    },
    {
      "children": [
        2
      ],
      "name": "root"
    },
    {
      "children": [
        3
      ],
      "matrix": [
        1.0,
        0.0,
        0.0,
        0.0,
        0.0,
        2.220446049250313e-16,
        1.0,
        0.0,
        0.0,
        -1.0,
        2.220446049250313e-16,
        0.0,
        0.0,
        0.0,
        0.0,
        1.0
      ],
      "name": "GLTF_SceneRootNode"
    },
    {
      "children": [
        4,
        5
      ],
      "matrix": [
        -4.820824549517468e-06,
        1.9019002129331956e-08,
        0.004795872045991681,
        0.0,
        -0.004795872045991681,
        1.8999893781854083e-08,
        -4.820824624865395e-06,
        0.0,
        -1.9019002129331956e-08,
        -0.004795874468906872,
        1.8999893781854083e-08,
        0.0,
        -0.016872523352503777,
        0.06310559809207916,
        -6.703514372929931e-06,
        1.0
      ],
      "name": "Gamepad_0"
    },
    {
      "mesh": 0,
      "name": "Object_4"
    },
    {
      "mesh": 1,
      "name": "Object_5"
    }
  ],
  "scene": 0,
  "scenes": [
    {
      "name": "Sketchfab_Scene",
      "nodes": [
        0
      ]
    }
  ]
}
